# xmcd
#
# Track frame offsets: 
#        150
#        23482
#        44408
#        79307
#        103595
#        126377
#        137931
#        181102
#        200502
#        227483
#        251068
#        282902
#        300572
#
# Disc length: 4418 seconds
#
# Revision: 0
# Processed by: cddbd v1.5.2PL0 Copyright (c) Steve Scherf et al.
# Submitted via: ExactAudioCopy v1.3
#
DISCID=b111400d
DTITLE=Bluescats Feat. Tommie Harris - Ride With Mule 5 (Live at Haus 
DTITLE=Eifgen)
DYEAR=2019
DGENRE=Blues
TTITLE0=Why I Sing the Blues
TTITLE1=Ride with Mule 5
TTITLE2=Luther's Blues
TTITLE3=Take Your Time
TTITLE4=Caledonia
TTITLE5=Bb King Story
TTITLE6=The Thrill Is Gone
TTITLE7=Got My Mojo Working
TTITLE8=It's a Blues World
TTITLE9=Night Time Is the Right Time
TTITLE10=Who's Been Talking
TTITLE11=Just a Little Bit
TTITLE12=Georgia on My Mind
EXTD=
EXTT0=
EXTT1=
EXTT2=
EXTT3=
EXTT4=
EXTT5=
EXTT6=
EXTT7=
EXTT8=
EXTT9=
EXTT10=
EXTT11=
EXTT12=
PLAYORDER=
